<svg width="176" height="30" viewBox="0 0 176 30" fill="none" xmlns="http://www.w3.org/2000/svg">
<path d="M28.8342 15.6891C26.6545 15.6891 24.763 14.46 23.8293 12.6755C23.4381 11.9302 23.2222 11.0819 23.2222 10.1858C23.2222 9.28974 23.4381 8.449 23.8293 7.69614C24.7553 5.9116 26.6468 4.6825 28.8342 4.6825C31.9235 4.6825 34.4463 7.1483 34.4463 10.1771C34.4463 13.2059 31.9312 15.6717 28.8342 15.6717V15.688V15.6891ZM23.837 19.218C23.4698 19.4241 23.1181 19.6465 22.775 19.8917V19.7171C22.775 18.8926 22.6709 18.0757 22.4561 17.299C22.8868 17.6711 23.3504 18.0052 23.837 18.2981C24.1241 18.4728 24.4276 18.6311 24.7312 18.7743C24.4276 18.9089 24.1241 19.0596 23.837 19.2267V19.2191V19.218ZM17.986 11.5429C17.6189 11.3368 17.2441 11.147 16.8528 10.9875C17.2441 10.8204 17.6189 10.6382 17.986 10.4321C18.4013 10.1945 18.8079 9.94063 19.1915 9.65532C19.1838 9.83757 19.175 10.0122 19.175 10.1945C19.175 11.0189 19.2868 11.8358 19.4939 12.6126C19.0227 12.2079 18.5197 11.8434 17.9849 11.5418L17.986 11.5429ZM17.986 22.4367C17.0205 24.0943 15.2002 25.2117 13.117 25.2117C10.0276 25.2117 7.50489 22.7459 7.50489 19.7171C7.50489 16.6882 10.02 14.2224 13.117 14.2224C15.2002 14.2224 17.0205 15.3409 17.986 16.9974C18.4572 17.798 18.7202 18.7342 18.7202 19.7171C18.7202 20.6999 18.4485 21.6361 17.986 22.4443V22.4367ZM40.0978 24.6259C39.5148 23.2861 38.6852 22.0809 37.631 21.0492C36.5767 20.011 35.3482 19.2018 33.9827 18.6311C33.8392 18.5682 33.6956 18.5118 33.552 18.4652C34.3181 18.0453 35.0293 17.5138 35.6671 16.8954C37.4874 15.1109 38.4934 12.733 38.4934 10.2032C38.4934 7.67336 37.4874 5.30302 35.6671 3.51089C33.8392 1.71877 31.4118 0.72724 28.8342 0.72724C27.0457 0.72724 25.3219 1.20348 23.8293 2.09086C23.7898 2.11473 23.7493 2.13859 23.7098 2.16246C23.7822 1.65476 23.8139 1.14707 23.8139 0.631775H19.7668C19.7668 2.37617 19.1367 4.03378 17.9783 5.35726C17.8501 5.50805 17.7153 5.65016 17.5707 5.79336C16.1581 7.18085 14.2896 7.94239 12.3104 7.94239C10.3312 7.94239 8.47037 7.18085 7.0501 5.79336C5.65283 4.40587 4.87037 2.57361 4.87037 0.631775H0.823242C0.823242 2.14619 1.1268 3.62155 1.73283 5.00903C2.31585 6.34879 3.14544 7.55402 4.19968 8.58461C5.25393 9.62278 6.48242 10.4321 7.8479 11.0027C8.11092 11.1133 8.3827 11.2164 8.65448 11.3043C7.79202 11.7479 6.99421 12.3186 6.28407 13.0085C4.46379 14.793 3.45776 17.171 3.45776 19.7008C3.45776 22.2306 4.46379 24.6009 6.28407 26.393C8.10434 28.1776 10.5306 29.168 13.1093 29.168C14.8496 29.168 16.5175 28.7243 17.9783 27.8836C18.0024 27.8673 18.0342 27.8521 18.0583 27.8359C18.0189 28.2166 17.9948 28.605 17.9948 28.9934H22.0419C22.0419 27.249 22.672 25.6 23.8216 24.2755C23.9575 24.1247 24.0934 23.9739 24.237 23.8318C25.6496 22.4443 27.5181 21.6827 29.4972 21.6827C31.4764 21.6827 33.3372 22.4443 34.7575 23.8318C36.1701 25.2193 36.9526 27.0515 36.9526 28.9858H40.9997C40.9997 27.4714 40.6962 25.996 40.0901 24.6085L40.0978 24.6248V24.6259Z" fill="white"/>
<path d="M29.4093 7.42712L25.8564 10.8443H28.251L28.228 12.6126L31.8203 9.25939L29.4247 9.21165L29.4093 7.42712Z" fill="white"/>
<path d="M13.6906 17.1168L10.1377 20.5426H12.5322L12.5092 22.3109L16.0928 18.9566L13.7059 18.9013L13.6906 17.1168Z" fill="white"/>
<path d="M59.4964 13.5161C59.913 13.132 60.1213 12.5903 60.1213 11.891C60.1213 10.4033 59.2786 9.66486 57.5825 9.66486H55.1132V14.0968H57.5825C58.4455 14.0968 59.0799 13.9001 59.4964 13.5161ZM62.739 14.1858C62.3428 14.8946 61.7275 15.4753 60.8944 15.9092C60.0518 16.3418 59.0009 16.5588 57.7214 16.5588H55.1132V22.4097H52V7.18274H57.7214C58.9206 7.18274 59.9525 7.39026 60.7951 7.79316C61.6377 8.19607 62.272 8.75798 62.6995 9.47756C63.1255 10.1863 63.3338 10.9949 63.3338 11.9004C63.3338 12.7183 63.1351 13.4756 62.7485 14.1952L62.739 14.1858Z" fill="white"/>
<path d="M72.5932 19.5339C73.0887 19.2685 73.4862 18.8642 73.7829 18.3225C74.081 17.7808 74.2294 17.13 74.2294 16.3619C74.2294 15.2098 73.9218 14.3325 73.3078 13.7127C72.6925 13.0915 71.9398 12.7869 71.0468 12.7869C70.1538 12.7869 69.4106 13.0928 68.8062 13.7127C68.2018 14.3339 67.9036 15.2192 67.9036 16.3619C67.9036 17.5046 68.2018 18.3912 68.7857 19.0111C69.3711 19.631 70.1143 19.9368 70.9964 19.9368C71.5613 19.9368 72.0868 19.7994 72.5932 19.5326V19.5339ZM67.8043 21.8287C66.8528 21.3167 66.1081 20.5783 65.5636 19.6323C65.0178 18.6863 64.751 17.5935 64.751 16.3619C64.751 15.1302 65.0287 14.0374 65.5841 13.0915C66.1395 12.1455 66.9031 11.4165 67.8642 10.895C68.8266 10.383 69.9074 10.1175 71.0972 10.1175C72.2869 10.1175 73.3582 10.3735 74.3301 10.895C75.2925 11.4071 76.0548 12.1455 76.6102 13.0915C77.1656 14.0374 77.4433 15.1302 77.4433 16.3619C77.4433 17.5935 77.1561 18.6863 76.5912 19.6323C76.0167 20.5783 75.2531 21.3073 74.2811 21.8287C73.3092 22.3408 72.2188 22.6063 71.0182 22.6063C69.8176 22.6063 68.7572 22.3502 67.8152 21.8287H67.8056H67.8043Z" fill="white"/>
<path d="M96.8298 10.3251L93.2211 22.4096H89.8588L87.6087 13.9688L85.3572 22.4096H81.9758L78.3467 10.3251H81.5102L83.691 19.5341L86.0514 10.3251H89.3429L91.6639 19.5138L93.846 10.3251H96.8298Z" fill="white"/>
<path d="M106.764 15.2303C106.744 14.442 106.456 13.8114 105.891 13.3397C105.327 12.8668 104.632 12.6309 103.82 12.6309C103.007 12.6309 102.401 12.8573 101.876 13.3209C101.35 13.7844 101.024 14.4137 100.904 15.2317H106.764V15.2303ZM109.898 17.2785H100.883C100.953 18.1544 101.27 18.8349 101.816 19.3267C102.362 19.8186 103.036 20.0652 103.839 20.0652C104.998 20.0652 105.822 19.5828 106.308 18.6072H109.669C109.312 19.7687 108.628 20.7241 107.616 21.4733C106.605 22.2212 105.365 22.5958 103.897 22.5958C102.708 22.5958 101.646 22.3398 100.704 21.8183C99.7618 21.3062 99.028 20.5678 98.5026 19.6219C97.9771 18.6759 97.709 17.5831 97.709 16.3514C97.709 15.1198 97.9663 14.0068 98.4917 13.0622C99.0076 12.1162 99.7413 11.3872 100.674 10.8751C101.606 10.3631 102.687 10.1071 103.907 10.1071C105.126 10.1071 106.128 10.3537 107.059 10.8455C107.992 11.3373 108.705 12.0367 109.221 12.953C109.737 13.8585 109.985 14.9029 109.985 16.0846C109.985 16.5185 109.955 16.912 109.895 17.2664V17.2758L109.898 17.2785Z" fill="white"/>
<path d="M116.948 10.6889C117.591 10.3251 118.336 10.1472 119.158 10.1472V13.3583H118.335C117.353 13.3583 116.62 13.5847 116.124 14.0375C115.629 14.4903 115.381 15.2786 115.381 16.3916V22.4096H112.268V10.3237H115.381V12.2049C115.777 11.5648 116.302 11.0622 116.948 10.6984V10.6889Z" fill="white"/>
<path d="M139.846 22.4097H136.731L129.672 11.9597V22.4097H126.559V7.16388H129.672L136.731 17.6327V7.16388H139.846V22.4097Z" fill="white"/>
<path d="M151.158 15.2303C151.137 14.442 150.85 13.8114 150.285 13.3397C149.72 12.8668 149.026 12.6309 148.213 12.6309C147.401 12.6309 146.795 12.8573 146.269 13.3209C145.744 13.7844 145.417 14.4137 145.297 15.2317H151.158V15.2303ZM154.291 17.2785H145.277C145.346 18.1544 145.664 18.8349 146.209 19.3267C146.755 19.8186 147.429 20.0652 148.232 20.0652C149.392 20.0652 150.216 19.5828 150.702 18.6072H154.063C153.706 19.7687 153.021 20.7241 152.01 21.4733C150.998 22.2226 149.758 22.5958 148.291 22.5958C147.101 22.5958 146.039 22.3398 145.097 21.8183C144.155 21.3062 143.422 20.5678 142.896 19.6219C142.371 18.6759 142.103 17.5831 142.103 16.3514C142.103 15.1198 142.36 14.0068 142.885 13.0622C143.401 12.1162 144.135 11.3872 145.067 10.8751C146 10.3631 147.081 10.1071 148.3 10.1071C149.52 10.1071 150.522 10.3537 151.453 10.8455C152.384 11.3373 153.099 12.0367 153.615 12.953C154.131 13.8585 154.378 14.9029 154.378 16.0846C154.378 16.5185 154.348 16.912 154.288 17.2664V17.2758L154.291 17.2785Z" fill="white"/>
<path d="M158.653 22.0646C157.85 21.7102 157.216 21.2278 156.749 20.6173C156.283 20.0069 156.025 19.3264 155.985 18.588H159.128C159.188 19.0515 159.427 19.4356 159.832 19.7401C160.238 20.0446 160.744 20.2023 161.36 20.2023C161.975 20.2023 162.42 20.0837 162.748 19.8573C163.086 19.6215 163.253 19.3251 163.253 18.9612C163.253 18.5678 163.045 18.2713 162.638 18.0746C162.231 17.8778 161.577 17.6609 160.694 17.4345C159.772 17.2175 159.018 16.9912 158.433 16.7554C157.848 16.5195 157.343 16.1638 156.915 15.6814C156.489 15.199 156.281 14.5589 156.281 13.741C156.281 13.0712 156.479 12.4608 156.866 11.9097C157.262 11.3586 157.828 10.9247 158.562 10.5999C159.296 10.2846 160.159 10.1175 161.161 10.1175C162.628 10.1175 163.799 10.4827 164.681 11.2009C165.554 11.9205 166.04 12.8947 166.129 14.1169H163.144C163.095 13.6345 162.896 13.2599 162.529 12.9742C162.161 12.6886 161.677 12.5511 161.071 12.5511C160.506 12.5511 160.069 12.6495 159.772 12.857C159.465 13.0632 159.316 13.3488 159.316 13.7046C159.316 14.1088 159.525 14.4242 159.941 14.6303C160.358 14.8365 161.002 15.0534 161.874 15.2704C162.767 15.4873 163.501 15.7137 164.075 15.9495C164.65 16.1854 165.156 16.5411 165.582 17.0329C166.008 17.5248 166.226 18.1662 166.237 18.9639C166.237 19.6633 166.038 20.2831 165.652 20.8451C165.256 21.3962 164.689 21.8301 163.955 22.1454C163.222 22.4607 162.359 22.6184 161.387 22.6184C160.415 22.6184 159.473 22.4419 158.67 22.0861L158.649 22.0659L158.653 22.0646Z" fill="white"/>
<path d="M172.42 12.826V18.6769C172.42 19.0812 172.519 19.3763 172.718 19.5636C172.917 19.7401 173.253 19.8398 173.729 19.8398H175.178V22.4109H173.215C170.588 22.4109 169.278 21.1604 169.278 18.6581V12.8368H167.811V10.325H169.278V7.34027H172.421V10.325H175.178V12.8368H172.421V12.8274L172.42 12.826Z" fill="white"/>
</svg>
